<svg width="297" height="126" viewBox="0 0 297 126" fill="none" xmlns="http://www.w3.org/2000/svg">
<path d="M108.251 80.2125L68.3112 50.25L77.6585 43.2375C78.0551 42.941 78.3772 42.5562 78.5992 42.1136C78.8212 41.6709 78.937 41.1827 78.9375 40.6875C78.9375 36.4606 77.2584 32.4068 74.2695 29.418C71.2806 26.4291 67.2269 24.75 63 24.75C58.7731 24.75 54.7193 26.4291 51.7305 29.418C48.7416 32.4068 47.0625 36.4606 47.0625 40.6875C47.0625 41.5329 47.3983 42.3436 47.9961 42.9414C48.5939 43.5392 49.4046 43.875 50.25 43.875C51.0954 43.875 51.9061 43.5392 52.5039 42.9414C53.1017 42.3436 53.4375 41.5329 53.4375 40.6875C53.4439 38.2866 54.3533 35.976 55.9849 34.2147C57.6165 32.4534 59.851 31.3703 62.2444 31.1806C64.6378 30.9909 67.015 31.7084 68.9037 33.1907C70.7924 34.673 72.0544 36.8115 72.439 39.1814L61.1433 47.6562L61.0317 47.7398L17.7494 80.2125C16.6799 81.0147 15.8895 82.1329 15.4903 83.4088C15.0911 84.6848 15.1031 86.054 15.5247 87.3228C15.9463 88.5916 16.7561 89.6957 17.8396 90.4789C18.9232 91.2622 20.2255 91.685 21.5625 91.6875H104.437C105.775 91.6875 107.08 91.2665 108.165 90.4842C109.25 89.7018 110.062 88.5978 110.485 87.3285C110.908 86.0591 110.921 84.6888 110.523 83.4117C110.124 82.1345 109.333 81.0153 108.262 80.2125H108.251ZM104.437 85.3125H21.5625L63 54.2344L104.437 85.3125Z" fill="#FBD23D"/>
<path d="M139.312 86V41.2H147.888L174.32 73.456H170.16V41.2H180.4V86H171.888L145.392 53.744H149.552V86H139.312ZM190.296 86V51.568H200.28V86H190.296ZM195.288 46.768C193.453 46.768 191.96 46.2347 190.808 45.168C189.656 44.1013 189.08 42.7787 189.08 41.2C189.08 39.6213 189.656 38.2987 190.808 37.232C191.96 36.1653 193.453 35.632 195.288 35.632C197.122 35.632 198.616 36.144 199.768 37.168C200.92 38.1493 201.496 39.4293 201.496 41.008C201.496 42.672 200.92 44.0587 199.768 45.168C198.658 46.2347 197.165 46.768 195.288 46.768ZM226.186 86.512C222.474 86.512 219.167 85.7653 216.266 84.272C213.364 82.736 211.082 80.624 209.418 77.936C207.796 75.248 206.986 72.1973 206.986 68.784C206.986 65.328 207.796 62.2773 209.418 59.632C211.082 56.944 213.364 54.8533 216.266 53.36C219.167 51.824 222.474 51.056 226.186 51.056C229.812 51.056 232.97 51.824 235.658 53.36C238.346 54.8533 240.33 57.008 241.61 59.824L233.866 63.984C232.97 62.3627 231.839 61.168 230.474 60.4C229.151 59.632 227.7 59.248 226.122 59.248C224.415 59.248 222.879 59.632 221.514 60.4C220.148 61.168 219.06 62.256 218.25 63.664C217.482 65.072 217.098 66.7787 217.098 68.784C217.098 70.7893 217.482 72.496 218.25 73.904C219.06 75.312 220.148 76.4 221.514 77.168C222.879 77.936 224.415 78.32 226.122 78.32C227.7 78.32 229.151 77.9573 230.474 77.232C231.839 76.464 232.97 75.248 233.866 73.584L241.61 77.808C240.33 80.5813 238.346 82.736 235.658 84.272C232.97 85.7653 229.812 86.512 226.186 86.512ZM263.305 86.512C259.635 86.512 256.371 85.744 253.513 84.208C250.697 82.672 248.457 80.5813 246.793 77.936C245.171 75.248 244.361 72.1973 244.361 68.784C244.361 65.328 245.171 62.2773 246.793 59.632C248.457 56.944 250.697 54.8533 253.513 53.36C256.371 51.824 259.635 51.056 263.305 51.056C266.931 51.056 270.174 51.824 273.033 53.36C275.891 54.8533 278.131 56.9227 279.753 59.568C281.374 62.2133 282.185 65.2853 282.185 68.784C282.185 72.1973 281.374 75.248 279.753 77.936C278.131 80.5813 275.891 82.672 273.033 84.208C270.174 85.744 266.931 86.512 263.305 86.512ZM263.305 78.32C264.969 78.32 266.462 77.936 267.785 77.168C269.107 76.4 270.153 75.312 270.921 73.904C271.689 72.4533 272.073 70.7467 272.073 68.784C272.073 66.7787 271.689 65.072 270.921 63.664C270.153 62.256 269.107 61.168 267.785 60.4C266.462 59.632 264.969 59.248 263.305 59.248C261.641 59.248 260.147 59.632 258.825 60.4C257.502 61.168 256.435 62.256 255.625 63.664C254.857 65.072 254.473 66.7787 254.473 68.784C254.473 70.7467 254.857 72.4533 255.625 73.904C256.435 75.312 257.502 76.4 258.825 77.168C260.147 77.936 261.641 78.32 263.305 78.32Z" fill="#FBD23D"/>
</svg>
